<mxfile host="app.diagrams.net" modified="2022-11-11T05:45:39.168Z" agent="5.0 (Macintosh; Intel Mac OS X 10_15_7) AppleWebKit/537.36 (KHTML, like Gecko) Chrome/107.0.0.0 Safari/537.36" etag="z_5YQIO6xwieLrfVGrdH" version="20.5.1" type="github">
  <diagram id="fHbY-IXV8rxFhdJGtk-R" name="第 1 页">
    <mxGraphModel dx="946" dy="589" grid="1" gridSize="10" guides="1" tooltips="1" connect="1" arrows="1" fold="1" page="1" pageScale="1" pageWidth="827" pageHeight="1169" math="0" shadow="0">
      <root>
        <mxCell id="0" />
        <mxCell id="1" parent="0" />
        <mxCell id="NOPCQUztD3E9gNZXsxj6-1" style="edgeStyle=orthogonalEdgeStyle;rounded=0;orthogonalLoop=1;jettySize=auto;html=1;fontFamily=Helvetica;fontSize=12;fontColor=default;dashed=1;" edge="1" parent="1" source="NOPCQUztD3E9gNZXsxj6-2">
          <mxGeometry relative="1" as="geometry">
            <mxPoint x="560" y="720" as="targetPoint" />
            <Array as="points">
              <mxPoint x="400" y="650" />
              <mxPoint x="560" y="650" />
            </Array>
          </mxGeometry>
        </mxCell>
        <mxCell id="NOPCQUztD3E9gNZXsxj6-2" value="" style="fontStyle=0;dashed=1;" vertex="1" parent="1">
          <mxGeometry x="280" y="210" width="240" height="410" as="geometry" />
        </mxCell>
        <mxCell id="NOPCQUztD3E9gNZXsxj6-3" style="edgeStyle=orthogonalEdgeStyle;rounded=0;orthogonalLoop=1;jettySize=auto;html=1;fontSize=12;entryX=0.5;entryY=0;entryDx=0;entryDy=0;" edge="1" parent="1" source="NOPCQUztD3E9gNZXsxj6-4" target="NOPCQUztD3E9gNZXsxj6-48">
          <mxGeometry relative="1" as="geometry">
            <mxPoint x="378" y="240" as="targetPoint" />
            <Array as="points">
              <mxPoint x="560" y="180" />
              <mxPoint x="400" y="180" />
            </Array>
          </mxGeometry>
        </mxCell>
        <mxCell id="NOPCQUztD3E9gNZXsxj6-4" value="RPA用户" style="shape=note2;boundedLbl=1;whiteSpace=wrap;html=1;size=25;verticalAlign=top;align=center;" vertex="1" parent="1">
          <mxGeometry x="500" y="100" width="120" height="60" as="geometry" />
        </mxCell>
        <mxCell id="NOPCQUztD3E9gNZXsxj6-5" style="edgeStyle=orthogonalEdgeStyle;rounded=0;orthogonalLoop=1;jettySize=auto;html=1;entryX=0.5;entryY=0;entryDx=0;entryDy=0;fontFamily=Helvetica;fontSize=12;fontColor=default;" edge="1" parent="1" source="NOPCQUztD3E9gNZXsxj6-6" target="NOPCQUztD3E9gNZXsxj6-8">
          <mxGeometry relative="1" as="geometry" />
        </mxCell>
        <mxCell id="NOPCQUztD3E9gNZXsxj6-6" value="选择RPA登录通道&#xa;使用RPA账密登录" style="fontStyle=0;fontSize=12;" vertex="1" parent="1">
          <mxGeometry x="340" y="290" width="120" height="40" as="geometry" />
        </mxCell>
        <mxCell id="NOPCQUztD3E9gNZXsxj6-7" style="edgeStyle=orthogonalEdgeStyle;rounded=0;orthogonalLoop=1;jettySize=auto;html=1;entryX=0.5;entryY=0;entryDx=0;entryDy=0;fontFamily=Helvetica;fontSize=12;fontColor=default;" edge="1" parent="1" source="NOPCQUztD3E9gNZXsxj6-8" target="NOPCQUztD3E9gNZXsxj6-10">
          <mxGeometry relative="1" as="geometry" />
        </mxCell>
        <mxCell id="NOPCQUztD3E9gNZXsxj6-8" value="请求RPA应用鉴权" style="fontStyle=0;fontSize=12;" vertex="1" parent="1">
          <mxGeometry x="340" y="360" width="120" height="40" as="geometry" />
        </mxCell>
        <mxCell id="NOPCQUztD3E9gNZXsxj6-9" value="" style="edgeStyle=orthogonalEdgeStyle;rounded=0;orthogonalLoop=1;jettySize=auto;html=1;fontFamily=Helvetica;fontSize=12;fontColor=default;" edge="1" parent="1" source="NOPCQUztD3E9gNZXsxj6-10" target="NOPCQUztD3E9gNZXsxj6-17">
          <mxGeometry relative="1" as="geometry" />
        </mxCell>
        <mxCell id="NOPCQUztD3E9gNZXsxj6-10" value="自动注册为RPA用户" style="fontStyle=0;fontSize=12;" vertex="1" parent="1">
          <mxGeometry x="340" y="430" width="120" height="40" as="geometry" />
        </mxCell>
        <mxCell id="NOPCQUztD3E9gNZXsxj6-11" value="配置聊天机器人" style="text;html=1;strokeColor=none;fillColor=none;align=left;verticalAlign=middle;whiteSpace=wrap;rounded=0;fontSize=16;" vertex="1" parent="1">
          <mxGeometry x="280" y="180" width="210" height="30" as="geometry" />
        </mxCell>
        <mxCell id="NOPCQUztD3E9gNZXsxj6-12" style="edgeStyle=orthogonalEdgeStyle;rounded=0;orthogonalLoop=1;jettySize=auto;html=1;exitX=0.5;exitY=1;exitDx=0;exitDy=0;fontFamily=Helvetica;fontSize=12;fontColor=default;dashed=1;entryX=0.5;entryY=0;entryDx=0;entryDy=0;" edge="1" parent="1" source="NOPCQUztD3E9gNZXsxj6-13" target="NOPCQUztD3E9gNZXsxj6-37">
          <mxGeometry relative="1" as="geometry">
            <mxPoint x="560" y="700" as="targetPoint" />
            <Array as="points">
              <mxPoint x="720" y="650" />
              <mxPoint x="560" y="650" />
            </Array>
          </mxGeometry>
        </mxCell>
        <mxCell id="NOPCQUztD3E9gNZXsxj6-13" value="" style="fontStyle=0;dashed=1;" vertex="1" parent="1">
          <mxGeometry x="600" y="210" width="240" height="410" as="geometry" />
        </mxCell>
        <mxCell id="NOPCQUztD3E9gNZXsxj6-14" value="" style="edgeStyle=orthogonalEdgeStyle;rounded=0;orthogonalLoop=1;jettySize=auto;html=1;fontSize=12;" edge="1" parent="1" source="NOPCQUztD3E9gNZXsxj6-15" target="NOPCQUztD3E9gNZXsxj6-30">
          <mxGeometry relative="1" as="geometry" />
        </mxCell>
        <mxCell id="NOPCQUztD3E9gNZXsxj6-15" value="使用Chatbot组件" style="fontStyle=0;fontSize=12;" vertex="1" parent="1">
          <mxGeometry x="660" y="300" width="120" height="40" as="geometry" />
        </mxCell>
        <mxCell id="NOPCQUztD3E9gNZXsxj6-16" value="" style="edgeStyle=orthogonalEdgeStyle;rounded=0;orthogonalLoop=1;jettySize=auto;html=1;fontFamily=Helvetica;fontSize=12;fontColor=default;" edge="1" parent="1" source="NOPCQUztD3E9gNZXsxj6-17" target="NOPCQUztD3E9gNZXsxj6-33">
          <mxGeometry relative="1" as="geometry" />
        </mxCell>
        <mxCell id="NOPCQUztD3E9gNZXsxj6-17" value="配置聊天机器人&#xa;绑定消息推送所需参数" style="fontStyle=0;fontSize=12;" vertex="1" parent="1">
          <mxGeometry x="340" y="500" width="120" height="40" as="geometry" />
        </mxCell>
        <mxCell id="NOPCQUztD3E9gNZXsxj6-18" value="" style="fontStyle=0;dashed=1;" vertex="1" parent="1">
          <mxGeometry x="310" y="710" width="500" height="530" as="geometry" />
        </mxCell>
        <mxCell id="NOPCQUztD3E9gNZXsxj6-19" value="" style="edgeStyle=orthogonalEdgeStyle;rounded=0;orthogonalLoop=1;jettySize=auto;html=1;fontFamily=Helvetica;fontSize=12;fontColor=default;" edge="1" parent="1" source="NOPCQUztD3E9gNZXsxj6-20" target="NOPCQUztD3E9gNZXsxj6-45">
          <mxGeometry relative="1" as="geometry" />
        </mxCell>
        <mxCell id="NOPCQUztD3E9gNZXsxj6-20" value="Chatbot组件调用&#xa;Chatbot推送消息接口" style="fontStyle=0;fontSize=12;" vertex="1" parent="1">
          <mxGeometry x="500" y="790" width="120" height="40" as="geometry" />
        </mxCell>
        <mxCell id="NOPCQUztD3E9gNZXsxj6-21" style="edgeStyle=orthogonalEdgeStyle;rounded=0;orthogonalLoop=1;jettySize=auto;html=1;fontFamily=Helvetica;fontSize=12;fontColor=default;exitX=1;exitY=0.5;exitDx=0;exitDy=0;" edge="1" parent="1" source="NOPCQUztD3E9gNZXsxj6-45" target="NOPCQUztD3E9gNZXsxj6-40">
          <mxGeometry relative="1" as="geometry">
            <mxPoint x="560" y="930" as="sourcePoint" />
            <Array as="points">
              <mxPoint x="740" y="890" />
            </Array>
          </mxGeometry>
        </mxCell>
        <mxCell id="NOPCQUztD3E9gNZXsxj6-22" value="鉴权失败" style="edgeLabel;html=1;align=center;verticalAlign=middle;resizable=0;points=[];fontSize=12;fontFamily=Helvetica;fontColor=default;" vertex="1" connectable="0" parent="NOPCQUztD3E9gNZXsxj6-21">
          <mxGeometry x="0.0756" y="1" relative="1" as="geometry">
            <mxPoint as="offset" />
          </mxGeometry>
        </mxCell>
        <mxCell id="NOPCQUztD3E9gNZXsxj6-23" style="edgeStyle=orthogonalEdgeStyle;rounded=0;orthogonalLoop=1;jettySize=auto;html=1;fontFamily=Helvetica;fontSize=12;fontColor=default;" edge="1" parent="1" source="NOPCQUztD3E9gNZXsxj6-26" target="NOPCQUztD3E9gNZXsxj6-42">
          <mxGeometry relative="1" as="geometry" />
        </mxCell>
        <mxCell id="NOPCQUztD3E9gNZXsxj6-24" value="发送成功" style="edgeLabel;html=1;align=center;verticalAlign=middle;resizable=0;points=[];fontSize=12;fontFamily=Helvetica;fontColor=default;" vertex="1" connectable="0" parent="NOPCQUztD3E9gNZXsxj6-23">
          <mxGeometry x="-0.381" y="-1" relative="1" as="geometry">
            <mxPoint as="offset" />
          </mxGeometry>
        </mxCell>
        <mxCell id="NOPCQUztD3E9gNZXsxj6-25" value="发送失败" style="edgeStyle=orthogonalEdgeStyle;rounded=0;orthogonalLoop=1;jettySize=auto;html=1;fontFamily=Helvetica;fontSize=12;fontColor=default;" edge="1" parent="1" source="NOPCQUztD3E9gNZXsxj6-26" target="NOPCQUztD3E9gNZXsxj6-40">
          <mxGeometry relative="1" as="geometry" />
        </mxCell>
        <mxCell id="NOPCQUztD3E9gNZXsxj6-26" value="指定聊天机器人&#xa;进行消息推送" style="fontStyle=0;fontSize=12;" vertex="1" parent="1">
          <mxGeometry x="500" y="1000" width="120" height="40" as="geometry" />
        </mxCell>
        <mxCell id="NOPCQUztD3E9gNZXsxj6-27" value="推送消息流程" style="text;html=1;strokeColor=none;fillColor=none;align=left;verticalAlign=middle;whiteSpace=wrap;rounded=0;fontSize=16;" vertex="1" parent="1">
          <mxGeometry x="310" y="680" width="105" height="30" as="geometry" />
        </mxCell>
        <mxCell id="NOPCQUztD3E9gNZXsxj6-28" value="配置RPA流程" style="text;html=1;strokeColor=none;fillColor=none;align=left;verticalAlign=middle;whiteSpace=wrap;rounded=0;fontSize=16;" vertex="1" parent="1">
          <mxGeometry x="600" y="180" width="210" height="30" as="geometry" />
        </mxCell>
        <mxCell id="NOPCQUztD3E9gNZXsxj6-29" value="" style="edgeStyle=orthogonalEdgeStyle;rounded=0;orthogonalLoop=1;jettySize=auto;html=1;fontFamily=Helvetica;fontSize=12;fontColor=default;" edge="1" parent="1" source="NOPCQUztD3E9gNZXsxj6-30" target="NOPCQUztD3E9gNZXsxj6-32">
          <mxGeometry relative="1" as="geometry" />
        </mxCell>
        <mxCell id="NOPCQUztD3E9gNZXsxj6-30" value="填写Chatbot机器人id" style="fontStyle=0;fontSize=12;" vertex="1" parent="1">
          <mxGeometry x="660" y="390" width="120" height="40" as="geometry" />
        </mxCell>
        <mxCell id="NOPCQUztD3E9gNZXsxj6-31" style="edgeStyle=orthogonalEdgeStyle;rounded=0;orthogonalLoop=1;jettySize=auto;html=1;fontSize=12;" edge="1" parent="1" source="NOPCQUztD3E9gNZXsxj6-32" target="NOPCQUztD3E9gNZXsxj6-34">
          <mxGeometry relative="1" as="geometry" />
        </mxCell>
        <mxCell id="NOPCQUztD3E9gNZXsxj6-32" value="填写其他相关信息" style="fontStyle=0;fontSize=12;" vertex="1" parent="1">
          <mxGeometry x="660" y="480" width="120" height="40" as="geometry" />
        </mxCell>
        <mxCell id="NOPCQUztD3E9gNZXsxj6-33" value="保存退出" style="fontStyle=0;fontSize=12;" vertex="1" parent="1">
          <mxGeometry x="340" y="565" width="120" height="40" as="geometry" />
        </mxCell>
        <mxCell id="NOPCQUztD3E9gNZXsxj6-34" value="保存流程信息" style="fontStyle=0;fontSize=12;" vertex="1" parent="1">
          <mxGeometry x="660" y="560" width="120" height="40" as="geometry" />
        </mxCell>
        <mxCell id="NOPCQUztD3E9gNZXsxj6-35" style="edgeStyle=orthogonalEdgeStyle;rounded=0;orthogonalLoop=1;jettySize=auto;html=1;entryX=0.5;entryY=0;entryDx=0;entryDy=0;fontFamily=Helvetica;fontSize=12;fontColor=default;" edge="1" parent="1" source="NOPCQUztD3E9gNZXsxj6-4" target="NOPCQUztD3E9gNZXsxj6-50">
          <mxGeometry relative="1" as="geometry">
            <Array as="points">
              <mxPoint x="560" y="180" />
              <mxPoint x="720" y="180" />
            </Array>
          </mxGeometry>
        </mxCell>
        <mxCell id="NOPCQUztD3E9gNZXsxj6-36" style="edgeStyle=orthogonalEdgeStyle;rounded=0;orthogonalLoop=1;jettySize=auto;html=1;fontFamily=Helvetica;fontSize=12;fontColor=default;" edge="1" parent="1" source="NOPCQUztD3E9gNZXsxj6-37" target="NOPCQUztD3E9gNZXsxj6-20">
          <mxGeometry relative="1" as="geometry" />
        </mxCell>
        <mxCell id="NOPCQUztD3E9gNZXsxj6-37" value="启动RPA流程" style="fontStyle=0;fontSize=12;" vertex="1" parent="1">
          <mxGeometry x="500" y="720" width="120" height="40" as="geometry" />
        </mxCell>
        <mxCell id="NOPCQUztD3E9gNZXsxj6-38" style="edgeStyle=orthogonalEdgeStyle;rounded=0;orthogonalLoop=1;jettySize=auto;html=1;entryX=0.5;entryY=0;entryDx=0;entryDy=0;fontFamily=Helvetica;fontSize=12;fontColor=default;" edge="1" parent="1" source="NOPCQUztD3E9gNZXsxj6-4" target="NOPCQUztD3E9gNZXsxj6-37">
          <mxGeometry relative="1" as="geometry" />
        </mxCell>
        <mxCell id="NOPCQUztD3E9gNZXsxj6-39" style="edgeStyle=orthogonalEdgeStyle;rounded=0;orthogonalLoop=1;jettySize=auto;html=1;entryX=1;entryY=0.5;entryDx=0;entryDy=0;fontFamily=Helvetica;fontSize=12;fontColor=default;" edge="1" parent="1" source="NOPCQUztD3E9gNZXsxj6-40" target="NOPCQUztD3E9gNZXsxj6-46">
          <mxGeometry relative="1" as="geometry">
            <Array as="points">
              <mxPoint x="740" y="1190" />
            </Array>
          </mxGeometry>
        </mxCell>
        <mxCell id="NOPCQUztD3E9gNZXsxj6-40" value="RPA应用提示失败信息" style="fontStyle=0;fontSize=12;" vertex="1" parent="1">
          <mxGeometry x="680" y="1000" width="120" height="40" as="geometry" />
        </mxCell>
        <mxCell id="NOPCQUztD3E9gNZXsxj6-41" value="" style="edgeStyle=orthogonalEdgeStyle;rounded=0;orthogonalLoop=1;jettySize=auto;html=1;fontFamily=Helvetica;fontSize=12;fontColor=default;" edge="1" parent="1" source="NOPCQUztD3E9gNZXsxj6-42" target="NOPCQUztD3E9gNZXsxj6-46">
          <mxGeometry relative="1" as="geometry" />
        </mxCell>
        <mxCell id="NOPCQUztD3E9gNZXsxj6-42" value="RPA应用提示发送成功" style="fontStyle=0;fontSize=12;" vertex="1" parent="1">
          <mxGeometry x="500" y="1089" width="120" height="40" as="geometry" />
        </mxCell>
        <mxCell id="NOPCQUztD3E9gNZXsxj6-43" style="edgeStyle=orthogonalEdgeStyle;rounded=0;orthogonalLoop=1;jettySize=auto;html=1;entryX=0.5;entryY=0;entryDx=0;entryDy=0;fontFamily=Helvetica;fontSize=12;fontColor=default;" edge="1" parent="1" source="NOPCQUztD3E9gNZXsxj6-45" target="NOPCQUztD3E9gNZXsxj6-26">
          <mxGeometry relative="1" as="geometry" />
        </mxCell>
        <mxCell id="NOPCQUztD3E9gNZXsxj6-44" value="鉴权成功" style="edgeLabel;html=1;align=center;verticalAlign=middle;resizable=0;points=[];fontSize=12;fontFamily=Helvetica;fontColor=default;" vertex="1" connectable="0" parent="NOPCQUztD3E9gNZXsxj6-43">
          <mxGeometry x="-0.2476" y="-2" relative="1" as="geometry">
            <mxPoint as="offset" />
          </mxGeometry>
        </mxCell>
        <mxCell id="NOPCQUztD3E9gNZXsxj6-45" value="&lt;span style=&quot;&quot;&gt;Chatbot&lt;/span&gt;&lt;span style=&quot;&quot;&gt;用户信息鉴权&lt;/span&gt;" style="rhombus;whiteSpace=wrap;html=1;fontFamily=Helvetica;fontSize=12;fontColor=default;" vertex="1" parent="1">
          <mxGeometry x="520" y="850" width="80" height="80" as="geometry" />
        </mxCell>
        <mxCell id="NOPCQUztD3E9gNZXsxj6-46" value="结束" style="ellipse;whiteSpace=wrap;html=1;fontFamily=Helvetica;fontSize=12;fontColor=default;" vertex="1" parent="1">
          <mxGeometry x="500" y="1150" width="120" height="80" as="geometry" />
        </mxCell>
        <mxCell id="NOPCQUztD3E9gNZXsxj6-47" style="edgeStyle=orthogonalEdgeStyle;rounded=0;orthogonalLoop=1;jettySize=auto;html=1;entryX=0.5;entryY=0;entryDx=0;entryDy=0;fontFamily=Helvetica;fontSize=12;fontColor=default;" edge="1" parent="1" source="NOPCQUztD3E9gNZXsxj6-48" target="NOPCQUztD3E9gNZXsxj6-6">
          <mxGeometry relative="1" as="geometry" />
        </mxCell>
        <mxCell id="NOPCQUztD3E9gNZXsxj6-48" value="访问聊天机器人应用" style="fontStyle=0;fontSize=12;" vertex="1" parent="1">
          <mxGeometry x="340" y="220" width="120" height="40" as="geometry" />
        </mxCell>
        <mxCell id="NOPCQUztD3E9gNZXsxj6-49" style="edgeStyle=orthogonalEdgeStyle;rounded=0;orthogonalLoop=1;jettySize=auto;html=1;entryX=0.5;entryY=0;entryDx=0;entryDy=0;fontFamily=Helvetica;fontSize=12;fontColor=default;" edge="1" parent="1" source="NOPCQUztD3E9gNZXsxj6-50" target="NOPCQUztD3E9gNZXsxj6-15">
          <mxGeometry relative="1" as="geometry" />
        </mxCell>
        <mxCell id="NOPCQUztD3E9gNZXsxj6-50" value="访问RPA应用" style="fontStyle=0;fontSize=12;" vertex="1" parent="1">
          <mxGeometry x="660" y="220" width="120" height="40" as="geometry" />
        </mxCell>
      </root>
    </mxGraphModel>
  </diagram>
</mxfile>
